<?xml version="1.0" encoding="UTF-8"?> <svg xmlns="http://www.w3.org/2000/svg" width="162" height="31" viewBox="0 0 162 31" fill="none"> <path d="M8.81665 10.5699H8.88153L16.0825 0.384682H17.6395V15.9543H15.6284V3.30399H15.5635L8.55716 12.9702H8.16792L1.29133 3.17426H1.22645V15.8895H0.188477V0.319824H1.68057L8.81665 10.5699Z" fill="white"></path> <path d="M25.4892 5.44464C25.8136 4.47154 26.3326 3.62818 26.9813 2.8497C27.6949 2.07122 28.5383 1.42248 29.5762 0.903492C30.6142 0.384503 31.9117 0.125 33.3389 0.125C34.831 0.125 36.1285 0.384503 37.2313 0.903492C38.3342 1.42248 39.2424 2.07122 39.956 2.91457C40.6696 3.69306 41.1886 4.60129 41.513 5.50952C41.8374 6.4826 42.032 7.32596 42.032 8.16931C42.032 8.6883 41.9671 9.27216 41.7725 9.9209C41.6427 10.5048 41.3832 11.1535 41.0589 11.7374C40.7345 12.3212 40.3453 12.9051 39.8911 13.4241C39.437 13.9431 38.8532 14.4621 38.2044 14.8513C37.5557 15.2405 36.8421 15.5649 35.9987 15.8244C35.2202 16.0839 34.312 16.2136 33.274 16.2136C31.7819 16.2136 30.5493 15.9541 29.5114 15.4352C28.4734 14.9162 27.5652 14.2674 26.9164 13.4241C26.2028 12.6456 25.7487 11.7374 25.4243 10.8291C25.1 9.85603 24.9702 9.01267 24.9702 8.16931C25.0351 7.32596 25.1648 6.41773 25.4892 5.44464ZM27.6949 11.0238C28.0193 11.8671 28.4734 12.6456 28.9924 13.2295C29.5762 13.8782 30.225 14.3323 30.9386 14.6567C31.7171 14.981 32.4956 15.1757 33.4038 15.1757C34.2471 15.1757 35.0905 14.981 35.869 14.6567C36.6475 14.3323 37.3611 13.8133 37.9449 13.2295C38.5288 12.5807 38.9829 11.8671 39.3073 11.0238C39.6317 10.1804 39.8263 9.20729 39.8263 8.16931C39.8263 7.13134 39.6317 6.15825 39.3073 5.31489C38.9829 4.47153 38.5288 3.69305 37.9449 3.10919C37.3611 2.46045 36.6475 2.00633 35.869 1.68196C35.0905 1.35759 34.2471 1.16298 33.4038 1.16298C32.4956 1.16298 31.7171 1.35759 30.9386 1.68196C30.1601 2.00633 29.5114 2.52533 28.9924 3.10919C28.4085 3.75792 28.0193 4.47153 27.6949 5.31489C27.3705 6.15825 27.2408 7.13134 27.2408 8.16931C27.1759 9.20729 27.3705 10.1804 27.6949 11.0238Z" fill="white"></path> <path d="M49.3628 15.9539V0.384277H51.3739V14.7213H59.4182V15.9539H49.3628Z" fill="white"></path> <path d="M64.2836 5.44464C64.608 4.47154 65.127 3.62818 65.7757 2.8497C66.4893 2.07122 67.3327 1.42248 68.3707 0.903492C69.4087 0.384503 70.7061 0.125 72.1333 0.125C73.6254 0.125 74.9229 0.384503 76.0258 0.903492C77.1286 1.42248 78.0368 2.07122 78.7505 2.91457C79.4641 3.69306 79.9831 4.60129 80.3074 5.50952C80.6318 6.4826 80.8264 7.32596 80.8264 8.16931C80.8264 8.6883 80.7615 9.27216 80.5669 9.9209C80.4372 10.5048 80.1777 11.1535 79.8533 11.7374C79.5289 12.3212 79.1397 12.9051 78.6856 13.4241C78.2315 13.9431 77.6476 14.4621 76.9989 14.8513C76.3501 15.2405 75.6365 15.5649 74.7932 15.8244C74.0147 16.0839 73.1064 16.2136 72.0685 16.2136C70.5764 16.2136 69.3438 15.9541 68.3058 15.4352C67.2678 14.9162 66.3596 14.2674 65.7109 13.4241C65.0621 12.5807 64.5431 11.7374 64.2188 10.8291C63.8944 9.85603 63.7646 9.01267 63.7646 8.16931C63.8295 7.32596 63.9593 6.41773 64.2836 5.44464ZM66.4893 11.0238C66.8137 11.8671 67.2678 12.6456 67.7868 13.2295C68.3707 13.8782 69.0194 14.3323 69.733 14.6567C70.5115 14.981 71.29 15.1757 72.1982 15.1757C73.0416 15.1757 73.8849 14.981 74.6634 14.6567C75.4419 14.3323 76.1555 13.8133 76.7394 13.2295C77.3232 12.6456 77.7773 11.8671 78.1017 11.0238C78.4261 10.1804 78.6207 9.20729 78.6207 8.16931C78.6207 7.13134 78.4261 6.15825 78.1017 5.31489C77.7773 4.47153 77.3232 3.69305 76.7394 3.10919C76.1555 2.52533 75.4419 2.00633 74.6634 1.68196C73.8849 1.35759 73.0416 1.16298 72.1982 1.16298C71.29 1.16298 70.5115 1.35759 69.733 1.68196C68.9545 2.00633 68.3058 2.52533 67.7868 3.10919C67.2029 3.75792 66.8137 4.47153 66.4893 5.31489C66.165 6.15825 66.0352 7.13134 66.0352 8.16931C65.9704 9.20729 66.165 10.1804 66.4893 11.0238Z" fill="white"></path> <path d="M88.2219 15.9539V0.384277H93.3469C94.5795 0.384277 95.6824 0.578911 96.7204 0.968153C97.7583 1.35739 98.6017 1.87638 99.3802 2.58999C100.094 3.3036 100.678 4.08208 101.067 5.05518C101.456 6.02829 101.651 7.00142 101.651 8.10427C101.651 9.272 101.456 10.31 101.002 11.2831C100.548 12.2562 100.029 13.0995 99.2504 13.7482C98.5368 14.4618 97.6286 14.9808 96.6555 15.37C95.6824 15.7593 94.6444 15.9539 93.5416 15.9539H88.2219ZM90.2979 14.9808H92.7631C93.9957 14.9808 95.0336 14.7862 95.877 14.3969C96.7204 14.0077 97.434 13.4887 97.953 12.7751C98.472 12.1264 98.9261 11.4128 99.1207 10.5695C99.3802 9.79099 99.5099 8.94756 99.5099 8.16908C99.5099 7.26085 99.3802 6.41749 99.0558 5.57416C98.7314 4.73081 98.3422 4.0172 97.7583 3.36847C97.1745 2.71973 96.4609 2.26562 95.6175 1.87638C94.7742 1.48714 93.8011 1.29252 92.6982 1.29252H90.233V14.9808H90.2979Z" fill="white"></path> <path d="M108.073 5.44464C108.398 4.47154 108.917 3.62818 109.565 2.8497C110.279 2.07122 111.122 1.42248 112.16 0.903492C113.198 0.384503 114.496 0.125 115.923 0.125C117.415 0.125 118.712 0.384503 119.815 0.903492C120.918 1.42248 121.826 2.07122 122.54 2.91457C123.254 3.69306 123.773 4.60129 124.097 5.50952C124.421 6.4826 124.616 7.32596 124.616 8.16931C124.616 8.6883 124.551 9.27216 124.356 9.9209C124.227 10.5048 123.967 11.1535 123.643 11.7374C123.318 12.3212 122.929 12.9051 122.475 13.4241C122.021 13.9431 121.437 14.4621 120.788 14.8513C120.14 15.2405 119.426 15.5649 118.583 15.8244C117.804 16.0839 116.896 16.2136 115.858 16.2136C114.366 16.2136 113.133 15.9541 112.095 15.4352C111.057 14.9162 110.149 14.2674 109.5 13.4241C108.787 12.6456 108.333 11.7374 108.008 10.8291C107.684 9.85603 107.554 9.01267 107.554 8.16931C107.554 7.32596 107.749 6.41773 108.073 5.44464ZM110.214 11.0238C110.538 11.8671 110.993 12.6456 111.511 13.2295C112.095 13.8782 112.744 14.3323 113.458 14.6567C114.236 14.981 115.015 15.1757 115.923 15.1757C116.766 15.1757 117.61 14.981 118.388 14.6567C119.167 14.3323 119.88 13.8133 120.464 13.2295C121.048 12.6456 121.502 11.8671 121.826 11.0238C122.151 10.1804 122.345 9.20729 122.345 8.16931C122.345 7.13134 122.151 6.15825 121.826 5.31489C121.502 4.47153 121.048 3.69305 120.464 3.10919C119.88 2.52533 119.167 2.00633 118.388 1.68196C117.61 1.35759 116.766 1.16298 115.923 1.16298C115.015 1.16298 114.236 1.35759 113.458 1.68196C112.679 2.00633 112.03 2.52533 111.511 3.10919C110.928 3.75792 110.538 4.47153 110.214 5.31489C109.89 6.15825 109.76 7.13134 109.76 8.16931C109.76 9.20729 109.89 10.1804 110.214 11.0238Z" fill="white"></path> <path d="M131.752 11.9969C131.752 12.2564 131.817 12.5807 131.947 12.9051C132.076 13.2943 132.271 13.6187 132.531 13.9431C132.855 14.2674 133.244 14.5918 133.828 14.8513C134.412 15.1108 135.126 15.2405 136.099 15.2405C137.266 15.2405 138.239 15.0459 138.888 14.5918C139.602 14.1377 139.926 13.4241 139.926 12.451C139.926 11.6725 139.732 11.0886 139.277 10.6345C138.823 10.1804 138.304 9.79115 137.591 9.46679C136.942 9.14242 136.164 8.88292 135.385 8.62343C134.607 8.36394 133.893 8.03957 133.179 7.7152C132.466 7.39083 131.947 6.93672 131.493 6.35285C131.038 5.83388 130.844 5.12028 130.844 4.21205C130.844 3.56331 130.974 2.97944 131.233 2.46045C131.493 1.94146 131.882 1.48735 132.336 1.16298C132.79 0.838612 133.374 0.579111 133.958 0.38449C134.607 0.18987 135.255 0.125 135.904 0.125C136.553 0.125 137.201 0.18987 137.785 0.38449C138.369 0.514238 138.953 0.773739 139.407 1.09811C139.861 1.42247 140.251 1.74685 140.575 2.20096C140.899 2.65508 141.094 3.10919 141.159 3.69305H139.667C139.537 2.84969 139.148 2.20096 138.499 1.74684C137.85 1.3576 137.007 1.16298 136.034 1.16298C135.45 1.16298 134.931 1.22785 134.477 1.35759C134.023 1.48734 133.633 1.68198 133.374 1.94147C133.05 2.20096 132.855 2.46045 132.66 2.78482C132.466 3.10919 132.401 3.43356 132.401 3.75792C132.401 4.40666 132.66 4.92565 133.114 5.31489C133.569 5.70413 134.152 6.0285 134.866 6.35285C135.58 6.67722 136.293 6.93672 137.137 7.19621C137.915 7.45571 138.694 7.78007 139.407 8.16931C140.121 8.55856 140.705 9.07755 141.159 9.66141C141.613 10.2453 141.872 11.0238 141.872 11.932C141.872 12.5807 141.743 13.2295 141.483 13.7484C141.224 14.2674 140.834 14.7864 140.315 15.1757C139.796 15.5649 139.213 15.8893 138.564 16.0839C137.85 16.2785 137.072 16.4083 136.228 16.4083C135.385 16.4083 134.607 16.2785 133.893 16.0839C133.179 15.8893 132.531 15.6298 132.012 15.2405C131.493 14.8513 131.038 14.4621 130.779 13.9431C130.455 13.4241 130.325 12.8402 130.26 12.1915H131.752V11.9969Z" fill="white"></path> <path d="M153.031 16.4731V3.75783H147.062V2.84961H161.01V3.75783H155.042V16.5379H153.031V16.4731Z" fill="white"></path> <path d="M161.01 0.384277H147.062V1.35738H161.01V0.384277Z" fill="white"></path> <path d="M53.9037 30.8101V26.0743H51.9575V25.6851H56.5635V26.0743H54.6173V30.8101H53.9037Z" fill="white"></path> <path d="M59.5479 30.8101H58.8992V25.6851H59.5479V27.8908H62.597V25.6851H63.2457V30.8101H62.597V28.28H59.5479V30.8101Z" fill="white"></path> <path d="M69.6679 25.685V26.0742H67.0081V27.8907H69.2787V28.2151H67.0081V30.3559H69.6679V30.7451H66.3594V25.6201H69.6679V25.685Z" fill="white"></path> <path d="M80.502 30.0319C80.4371 30.0967 80.3722 30.1616 80.2425 30.2914C80.1127 30.4211 79.983 30.486 79.7884 30.5509C79.5937 30.6157 79.3991 30.6806 79.1396 30.7455C78.8801 30.8104 78.6206 30.8104 78.2963 30.8104C77.7773 30.8104 77.388 30.7455 76.9988 30.5509C76.6744 30.4211 76.3501 30.2265 76.0906 29.967C75.8311 29.7075 75.7013 29.448 75.5716 29.1236C75.4418 28.7993 75.377 28.4749 75.377 28.1505C75.377 27.7613 75.4418 27.3721 75.5716 27.0477C75.7013 26.7233 75.8959 26.4638 76.1554 26.2043C76.4149 26.0097 76.6744 25.8151 77.0637 25.6853C77.388 25.5556 77.7773 25.4907 78.2314 25.4907C78.5558 25.4907 78.8153 25.4907 79.0099 25.5556C79.2694 25.6205 79.464 25.6853 79.5937 25.8151C79.7884 25.9448 79.9181 26.0097 80.0479 26.2043C80.1776 26.3341 80.2425 26.5287 80.3073 26.6584H79.7884C79.7235 26.5287 79.7235 26.4638 79.5937 26.3341C79.5289 26.2043 79.3991 26.1395 79.2694 26.0746C79.1396 26.0097 79.0099 25.9448 78.8153 25.88C78.6206 25.8151 78.426 25.8151 78.2314 25.8151C77.907 25.8151 77.6475 25.88 77.388 26.0097C77.1285 26.1395 76.9339 26.2692 76.7393 26.4638C76.5447 26.6584 76.4149 26.9179 76.2852 27.1774C76.1554 27.4369 76.1554 27.7613 76.1554 28.0857C76.1554 28.41 76.2203 28.6695 76.2852 28.9939C76.4149 29.2534 76.5447 29.5129 76.7393 29.7724C76.9339 29.967 77.1934 30.1616 77.4529 30.2914C77.7773 30.4211 78.1016 30.486 78.4909 30.486C79.2045 30.486 79.7884 30.2265 80.2425 29.7724L80.502 30.0319Z" fill="white"></path> <path d="M82.9673 30.8101V25.6851H83.616V30.4209H86.2758V30.8101H82.9673Z" fill="white"></path> <path d="M89.5193 25.6851V30.8101H88.8706V25.6851H89.5193Z" fill="white"></path> <path d="M97.2395 25.6853V30.8752H97.1746L93.0876 26.8531V30.7456H92.7632V25.5557H92.8281L96.9151 29.5778V25.6853H97.2395Z" fill="white"></path> <path d="M101.132 25.6851V30.8101H100.483V25.6851H101.132Z" fill="white"></path> <path d="M109.046 30.0319C108.982 30.0967 108.917 30.1616 108.787 30.2914C108.657 30.4211 108.527 30.486 108.333 30.5509C108.138 30.6157 107.944 30.6806 107.684 30.7455C107.425 30.8104 107.165 30.8104 106.841 30.8104C106.322 30.8104 105.932 30.7455 105.543 30.5509C105.219 30.4211 104.894 30.2265 104.635 29.967C104.375 29.7075 104.246 29.448 104.116 29.1236C103.986 28.7993 103.921 28.4749 103.921 28.1505C103.921 27.7613 103.986 27.3721 104.116 27.0477C104.246 26.7233 104.44 26.4638 104.7 26.2043C104.959 26.0097 105.219 25.8151 105.608 25.6853C105.932 25.5556 106.322 25.4907 106.776 25.4907C107.1 25.4907 107.36 25.4907 107.554 25.5556C107.814 25.6205 108.008 25.6853 108.138 25.8151C108.333 25.9448 108.463 26.0097 108.592 26.2043C108.722 26.3341 108.787 26.5287 108.852 26.6584H108.333C108.268 26.5287 108.268 26.4638 108.138 26.3341C108.073 26.2043 107.944 26.1395 107.814 26.0746C107.684 26.0097 107.554 25.9448 107.36 25.88C107.165 25.8151 106.97 25.8151 106.776 25.8151C106.451 25.8151 106.192 25.88 105.932 26.0097C105.673 26.1395 105.478 26.2692 105.284 26.4638C105.089 26.6584 104.959 26.9179 104.83 27.1774C104.7 27.4369 104.7 27.7613 104.7 28.0857C104.7 28.41 104.765 28.6695 104.83 28.9939C104.959 29.2534 105.089 29.5129 105.284 29.7724C105.478 29.967 105.738 30.1616 105.997 30.2914C106.322 30.4211 106.646 30.486 107.035 30.486C107.749 30.486 108.333 30.2265 108.787 29.7724L109.046 30.0319Z" fill="white"></path> </svg> 